<?xml version="1.0" encoding="UTF-8" ?>
<!DOCTYPE svg PUBLIC "-//W3C//DTD SVG 1.1//EN" "http://www.w3.org/Graphics/SVG/1.1/DTD/svg11.dtd">
<svg width="300pt" height="300pt" viewBox="0 0 300 300" version="1.1" xmlns="http://www.w3.org/2000/svg">
<g id="#ffffffff">
<path fill="#ffffff" opacity="1.00" d=" M 106.59 6.33 C 122.22 1.46 138.67 -0.44 155.01 0.12 C 190.76 0.92 225.89 15.56 252.02 39.92 C 255.27 43.34 259.40 46.20 261.58 50.46 C 263.74 51.74 266.01 53.71 266.00 56.44 C 267.14 58.17 268.30 60.08 270.51 60.51 C 273.47 64.58 276.48 68.66 278.66 73.22 C 281.93 78.35 285.31 83.59 286.76 89.59 C 287.74 93.40 290.41 96.47 291.64 100.19 C 297.01 115.88 300.16 132.43 299.90 149.05 C 300.58 182.06 289.31 215.02 269.24 241.16 C 249.40 267.19 220.85 286.47 189.21 294.91 C 171.23 299.92 152.33 300.87 133.79 299.23 C 100.32 295.70 68.23 280.45 44.42 256.65 C 17.39 230.11 0.92 192.92 0.11 154.99 C -0.87 130.57 4.40 105.95 15.22 84.05 C 18.37 80.22 19.39 75.24 22.21 71.21 C 41.27 40.34 71.76 16.63 106.59 6.33 M 50.56 59.81 C 46.68 112.38 42.67 164.93 39.07 217.52 C 36.32 217.53 33.56 217.54 30.81 217.55 C 30.81 221.77 30.81 225.99 30.82 230.21 C 41.14 230.32 51.46 230.08 61.78 229.81 C 61.78 226.30 61.85 222.78 61.93 219.27 C 60.33 219.22 58.73 219.17 57.13 219.12 C 59.05 168.31 61.28 117.51 63.40 66.71 C 66.24 65.53 69.08 64.35 71.92 63.15 C 71.80 57.82 71.76 52.48 71.60 47.15 C 64.61 51.42 57.56 55.57 50.56 59.81 M 78.32 46.68 C 78.30 51.86 78.30 57.05 78.31 62.23 C 81.33 63.96 84.34 65.70 87.33 67.48 C 89.11 117.79 91.02 168.09 92.86 218.39 C 91.16 218.40 89.46 218.42 87.76 218.43 C 87.82 222.38 87.84 226.33 87.84 230.28 C 103.84 230.36 119.84 230.10 135.84 230.21 C 135.84 226.29 135.85 222.37 135.87 218.44 C 134.35 218.47 132.83 218.49 131.32 218.52 C 133.59 168.99 135.81 119.46 137.95 69.92 C 137.29 65.04 143.30 64.40 146.29 62.09 C 146.33 57.24 146.46 52.39 146.53 47.53 C 139.46 51.66 132.33 55.66 125.23 59.73 C 121.25 112.59 117.50 165.47 113.53 218.33 C 113.08 218.21 112.19 217.95 111.74 217.83 C 107.79 165.35 103.66 112.89 99.56 60.42 C 92.48 55.84 85.35 51.33 78.32 46.68 M 227.28 46.40 C 227.30 51.96 227.30 57.52 227.29 63.08 C 230.27 64.82 233.70 65.98 236.30 68.27 C 238.58 118.32 240.44 168.40 242.60 218.47 C 240.92 218.46 239.24 218.46 237.57 218.46 C 237.65 222.15 237.76 225.84 237.88 229.53 C 248.19 229.57 258.50 229.50 268.81 229.78 C 268.82 225.91 268.81 222.05 268.81 218.19 C 266.04 218.19 263.27 218.20 260.50 218.23 C 256.60 165.33 252.79 112.43 248.81 59.53 C 241.60 55.21 234.44 50.80 227.28 46.40 M 153.50 47.00 C 153.46 52.02 153.62 57.04 153.69 62.06 C 156.55 63.38 159.40 64.71 162.26 66.03 C 164.43 116.57 166.52 167.11 168.75 217.65 C 166.89 217.74 165.03 217.83 163.17 217.91 C 163.15 221.87 163.15 225.83 163.14 229.79 C 179.19 229.81 195.25 229.77 211.30 229.81 C 211.09 226.09 210.85 222.38 210.65 218.66 C 209.27 218.65 207.89 218.64 206.51 218.64 C 209.01 168.29 211.12 117.90 213.75 67.56 C 216.10 65.45 218.98 64.05 221.62 62.34 C 221.41 57.17 221.38 51.99 221.42 46.81 C 214.27 51.56 206.89 55.93 199.73 60.66 C 196.44 112.84 193.08 165.01 189.62 217.18 C 188.96 217.21 187.64 217.26 186.98 217.28 C 183.17 164.88 179.09 112.49 175.24 60.08 C 168.00 55.71 160.70 51.44 153.50 47.00 Z" />
</g>
<g id="#70ac7eff">
<path fill="#70ac7e" opacity="1.00" d=" M 50.56 59.81 C 57.56 55.57 64.61 51.42 71.60 47.15 C 71.76 52.48 71.80 57.82 71.92 63.15 C 69.08 64.35 66.24 65.53 63.40 66.71 C 61.28 117.51 59.05 168.31 57.13 219.12 C 58.73 219.17 60.33 219.22 61.93 219.27 C 61.85 222.78 61.78 226.30 61.78 229.81 C 51.46 230.08 41.14 230.32 30.82 230.21 C 30.81 225.99 30.81 221.77 30.81 217.55 C 33.56 217.54 36.32 217.53 39.07 217.52 C 42.67 164.93 46.68 112.38 50.56 59.81 Z" />
<path fill="#70ac7e" opacity="1.00" d=" M 78.32 46.68 C 85.35 51.33 92.48 55.84 99.56 60.42 C 103.66 112.89 107.79 165.35 111.74 217.83 C 112.19 217.95 113.08 218.21 113.53 218.33 C 117.50 165.47 121.25 112.59 125.23 59.73 C 132.33 55.66 139.46 51.66 146.53 47.53 C 146.46 52.39 146.33 57.24 146.29 62.09 C 143.30 64.40 137.29 65.04 137.95 69.92 C 135.81 119.46 133.59 168.99 131.32 218.52 C 132.83 218.49 134.35 218.47 135.87 218.44 C 135.85 222.37 135.84 226.29 135.84 230.21 C 119.84 230.10 103.84 230.36 87.84 230.28 C 87.84 226.33 87.82 222.38 87.76 218.43 C 89.46 218.42 91.16 218.40 92.86 218.39 C 91.02 168.09 89.11 117.79 87.33 67.48 C 84.34 65.70 81.33 63.96 78.31 62.23 C 78.30 57.05 78.30 51.86 78.32 46.68 Z" />
<path fill="#70ac7e" opacity="1.00" d=" M 227.28 46.40 C 234.44 50.80 241.60 55.21 248.81 59.53 C 252.79 112.43 256.60 165.33 260.50 218.23 C 263.27 218.20 266.04 218.19 268.81 218.19 C 268.81 222.05 268.82 225.91 268.81 229.78 C 258.50 229.50 248.19 229.57 237.88 229.53 C 237.76 225.84 237.65 222.15 237.57 218.46 C 239.24 218.46 240.92 218.46 242.60 218.47 C 240.44 168.40 238.58 118.32 236.30 68.27 C 233.70 65.98 230.27 64.82 227.29 63.08 C 227.30 57.52 227.30 51.96 227.28 46.40 Z" />
<path fill="#70ac7e" opacity="1.00" d=" M 153.50 47.00 C 160.70 51.44 168.00 55.71 175.24 60.08 C 179.09 112.49 183.17 164.88 186.98 217.28 C 187.64 217.26 188.96 217.21 189.62 217.18 C 193.08 165.01 196.44 112.84 199.73 60.66 C 206.89 55.93 214.27 51.56 221.42 46.81 C 221.38 51.99 221.41 57.17 221.62 62.34 C 218.98 64.05 216.10 65.45 213.75 67.56 C 211.12 117.90 209.01 168.29 206.51 218.64 C 207.89 218.64 209.27 218.65 210.65 218.66 C 210.85 222.38 211.09 226.09 211.30 229.81 C 195.25 229.77 179.19 229.81 163.14 229.79 C 163.15 225.83 163.15 221.87 163.17 217.91 C 165.03 217.83 166.89 217.74 168.75 217.65 C 166.52 167.11 164.43 116.57 162.26 66.03 C 159.40 64.71 156.55 63.38 153.69 62.06 C 153.62 57.04 153.46 52.02 153.50 47.00 Z" />
</g>
</svg>
