<?xml version="1.0" standalone="no"?><!DOCTYPE svg PUBLIC "-//W3C//DTD SVG 1.1//EN" "http://www.w3.org/Graphics/SVG/1.1/DTD/svg11.dtd"><svg t="1661657969605" class="icon" viewBox="0 0 1478 1024" version="1.1" xmlns="http://www.w3.org/2000/svg" p-id="3149" xmlns:xlink="http://www.w3.org/1999/xlink" width="288.671875" height="200"><path d="M739 864c-11.6 0-23.2-0.6-34.8-1.8-11.6-1.2-23-3-34.4-5.2-11.4-2.4-22.6-5.2-33.8-8.6-11.2-3.4-22-7.4-32.8-12-10.8-4.6-21.2-9.6-31.4-15.2s-20-11.8-29.6-18.4c-9.6-6.6-18.8-13.6-27.8-21.2-8.8-7.6-17.4-15.6-25.4-24 9.2-13.4 19.8-25.6 31.6-37 11.8-11.2 24.4-21.2 38.2-30 50.6-32.6 114.6-50.6 180.2-50.6s129.6 18 180.2 50.6c13.8 8.6 26.4 18.6 38.2 30 11.8 11.2 22.2 23.6 31.6 37-8 8.4-16.6 16.4-25.4 24-8.8 7.6-18.2 14.6-27.8 21.2-9.6 6.6-19.4 12.8-29.6 18.4-10.2 5.6-20.6 10.8-31.4 15.2-10.8 4.6-21.6 8.6-32.8 12-11.2 3.4-22.4 6.4-33.8 8.6s-22.8 4-34.4 5.2c-11.6 1.2-23.2 1.8-34.8 1.8z m-99.6-534.4c25.2-26.8 60.4-41.6 99.6-41.6s74.2 14.8 99.4 41.8c25.6 27.4 38 64.2 35 103.6-5.8 78.4-66.2 142.4-134.4 142.4s-128.6-64-134.4-142.4c-3-39.8 9.4-76.6 34.8-103.8zM739 96C511.6 96 326.4 282.6 326.4 512s185 416 412.6 416 412.6-186.6 412.6-416S966.4 96 739 96z" p-id="3150" fill="#dbdbdb"></path></svg>